<svg xmlns="http://www.w3.org/2000/svg" id="horizontal-logo" width="100%" height="200" viewBox="0 0 800 300"><rect x="90" y="10" width="70" height="70" fill="#e63946" rx="10.5"/><g><circle cx="125" cy="45" r="28" fill="white" opacity="0.9"/><circle cx="142.5" cy="45" r="5.6000000000000005" fill="#e63946"/><circle cx="130.4077974015616" cy="61.64348903516519" r="5.6000000000000005" fill="#e63946"/><circle cx="110.84220259843842" cy="55.28624191511828" r="5.6000000000000005" fill="#e63946"/><circle cx="110.84220259843842" cy="34.71375808488172" r="5.6000000000000005" fill="#e63946"/><circle cx="130.40779740156157" cy="28.35651096483481" r="5.6000000000000005" fill="#e63946"/></g><rect x="160" y="10" width="70" height="70" fill="#ff9f1c" rx="10.5"/><g><rect x="181" y="24" width="10.5" height="35" fill="white" opacity="0.9"/><circle cx="202" cy="52" r="10.5" fill="white" opacity="0.9"/><rect x="177.5" y="59" width="35" height="7" fill="white" opacity="0.9"/></g><rect x="90" y="80" width="70" height="70" fill="#8bc34a" rx="10.5"/><g><rect x="104" y="97.5" width="42" height="10.5" fill="white" opacity="0.9" rx="1.4000000000000001"/><rect x="104" y="110.1" width="42" height="10.5" fill="white" opacity="0.9" rx="1.4000000000000001"/><rect x="104" y="122.7" width="42" height="10.5" fill="white" opacity="0.9" rx="1.4000000000000001"/></g><rect x="160" y="80" width="70" height="70" fill="#20c997" rx="10.5"/><g><rect x="174" y="101" width="42" height="28" fill="white" opacity="0.9" rx="1.4000000000000001"/><line x1="184.5" y1="111.5" x2="205.5" y2="111.5" stroke="#20c997" stroke-width="2.8000000000000003"/><line x1="184.5" y1="118.5" x2="205.5" y2="118.5" stroke="#20c997" stroke-width="2.8000000000000003"/></g><g><text x="340" y="135" font-family="Arial Black, sans-serif" font-size="60" font-weight="900" fill="#2d5f5f" letter-spacing="4">PROOFSTACK</text><text x="340" y="175" font-family="Arial, sans-serif" font-size="28" font-weight="bold" fill="#5a9999" letter-spacing="6">COMMIT TO PROOF</text></g></svg>