<svg xmlns="http://www.w3.org/2000/svg" id="banner-logo" width="100%" height="150" viewBox="0 0 1200 400"><rect x="140" y="0" width="100" height="100" fill="#e63946" rx="15"/><g><circle cx="190" cy="50" r="40" fill="white" opacity="0.9"/><circle cx="215" cy="50" r="8" fill="#e63946"/><circle cx="197.72542485937367" cy="73.77641290737884" r="8" fill="#e63946"/><circle cx="169.77457514062633" cy="64.69463130731182" r="8" fill="#e63946"/><circle cx="169.77457514062633" cy="35.30536869268818" r="8" fill="#e63946"/><circle cx="197.72542485937367" cy="26.22358709262116" r="8" fill="#e63946"/></g><rect x="240" y="0" width="100" height="100" fill="#ff9f1c" rx="15"/><g><rect x="270" y="20" width="15" height="50" fill="white" opacity="0.9"/><circle cx="300" cy="60" r="15" fill="white" opacity="0.9"/><rect x="265" y="70" width="50" height="10" fill="white" opacity="0.9"/></g><rect x="140" y="100" width="100" height="100" fill="#8bc34a" rx="15"/><g><rect x="160" y="125" width="60" height="15" fill="white" opacity="0.9" rx="2"/><rect x="160" y="143" width="60" height="15" fill="white" opacity="0.9" rx="2"/><rect x="160" y="161" width="60" height="15" fill="white" opacity="0.9" rx="2"/></g><rect x="240" y="100" width="100" height="100" fill="#20c997" rx="15"/><g><rect x="260" y="130" width="60" height="40" fill="white" opacity="0.9" rx="2"/><line x1="275" y1="145" x2="305" y2="145" stroke="#20c997" stroke-width="4"/><line x1="275" y1="155" x2="305" y2="155" stroke="#20c997" stroke-width="4"/></g><g><text x="480" y="210" font-family="Arial Black, sans-serif" font-size="90" font-weight="900" fill="#2d5f5f" letter-spacing="6">PROOFSTACK</text><text x="480" y="265" font-family="Arial, sans-serif" font-size="42" font-weight="bold" fill="#5a9999" letter-spacing="10">COMMIT TO PROOF</text></g></svg>