<svg xmlns="http://www.w3.org/2000/svg" id="favicon-preview" width="64" height="64" viewBox="0 0 64 64"><rect x="16" y="0" width="16" height="16" fill="#e63946" rx="2.4"/><g><circle cx="24" cy="8" r="6.4" fill="white" opacity="0.9"/><circle cx="28" cy="8" r="1.28" fill="#e63946"/><circle cx="25.23606797749979" cy="11.804226065180615" r="1.28" fill="#e63946"/><circle cx="20.76393202250021" cy="10.351141009169893" r="1.28" fill="#e63946"/><circle cx="20.76393202250021" cy="5.648858990830108" r="1.28" fill="#e63946"/><circle cx="25.23606797749979" cy="4.195773934819385" r="1.28" fill="#e63946"/></g><rect x="32" y="0" width="16" height="16" fill="#ff9f1c" rx="2.4"/><g><rect x="36.8" y="3.2" width="2.4" height="8" fill="white" opacity="0.9"/><circle cx="41.6" cy="9.6" r="2.4" fill="white" opacity="0.9"/><rect x="36" y="11.2" width="8" height="1.6" fill="white" opacity="0.9"/></g><rect x="16" y="16" width="16" height="16" fill="#8bc34a" rx="2.4"/><g><rect x="19.2" y="20" width="9.6" height="2.4" fill="white" opacity="0.9" rx="0.32"/><rect x="19.2" y="22.88" width="9.6" height="2.4" fill="white" opacity="0.9" rx="0.32"/><rect x="19.2" y="25.759999999999998" width="9.6" height="2.4" fill="white" opacity="0.9" rx="0.32"/></g><rect x="32" y="16" width="16" height="16" fill="#20c997" rx="2.4"/><g><rect x="35.2" y="20.8" width="9.6" height="6.4" fill="white" opacity="0.9" rx="0.32"/><line x1="37.6" y1="23.2" x2="42.4" y2="23.2" stroke="#20c997" stroke-width="0.64"/><line x1="37.6" y1="24.8" x2="42.4" y2="24.8" stroke="#20c997" stroke-width="0.64"/></g></svg>