<svg xmlns="http://www.w3.org/2000/svg" id="favicon-preview" width="64" height="64" viewBox="0 0 64 64">
  <!-- Background -->
  <rect width="64" height="64" fill="#f8f9fa"/>
  
  <!-- Icon grid with improved spacing -->
  <g transform="translate(8, 12)">
    <!-- Top row -->
    <rect x="0" y="0" width="20" height="20" fill="#e63946" rx="3"/>
    <g transform="translate(10, 10)">
      <circle cx="0" cy="0" r="8" fill="white" opacity="0.9"/>
      <circle cx="5" cy="0" r="1.6" fill="#e63946"/>
      <circle cx="3.54" cy="4.61" r="1.6" fill="#e63946"/>
      <circle cx="-1.54" cy="2.85" r="1.6" fill="#e63946"/>
      <circle cx="-1.54" cy="-2.85" r="1.6" fill="#e63946"/>
      <circle cx="3.54" cy="-4.61" r="1.6" fill="#e63946"/>
    </g>
    
    <rect x="28" y="0" width="20" height="20" fill="#ff9f1c" rx="3"/>
    <g transform="translate(28, 0)">
      <rect x="7" y="4" width="3" height="10" fill="white" opacity="0.9"/>
      <circle cx="15" cy="12" r="3" fill="white" opacity="0.9"/>
      <rect x="5" y="14" width="10" height="2" fill="white" opacity="0.9"/>
    </g>
    
    <!-- Bottom row -->
    <rect x="0" y="28" width="20" height="20" fill="#8bc34a" rx="3"/>
    <g transform="translate(0, 28)">
      <rect x="4" y="6" width="12" height="3" fill="white" opacity="0.9" rx="0.4"/>
      <rect x="4" y="10" width="12" height="3" fill="white" opacity="0.9" rx="0.4"/>
      <rect x="4" y="14" width="12" height="3" fill="white" opacity="0.9" rx="0.4"/>
    </g>
    
    <rect x="28" y="28" width="20" height="20" fill="#20c997" rx="3"/>
    <g transform="translate(28, 28)">
      <rect x="4" y="7" width="12" height="8" fill="white" opacity="0.9" rx="0.4"/>
      <line x1="6.5" y1="10" x2="13.5" y2="10" stroke="#20c997" stroke-width="1.2"/>
      <line x1="6.5" y1="12.5" x2="13.5" y2="12.5" stroke="#20c997" stroke-width="1.2"/>
    </g>
  </g>
</svg>