<svg xmlns="http://www.w3.org/2000/svg" id="icon-only" width="256" height="256" viewBox="0 0 256 256">
  <!-- Background with subtle gradient -->
  <defs>
    <linearGradient id="iconBg" x1="0%" y1="0%" x2="100%" y2="100%">
      <stop offset="0%" style="stop-color:#f8f9fa;stop-opacity:1" />
      <stop offset="100%" style="stop-color:#e9ecef;stop-opacity:1" />
    </linearGradient>
    <filter id="iconShadow" x="-50%" y="-50%" width="200%" height="200%">
      <feDropShadow dx="3" dy="3" stdDeviation="4" flood-color="rgba(0,0,0,0.1)"/>
    </filter>
  </defs>
  
  <!-- Background -->
  <rect width="256" height="256" fill="url(#iconBg)" rx="32"/>
  
  <!-- Icon grid with improved spacing and shadows -->
  <g transform="translate(32, 32)" filter="url(#iconShadow)">
    <!-- Top row -->
    <rect x="0" y="0" width="80" height="80" fill="#e63946" rx="12"/>
    <g transform="translate(40, 40)">
      <circle cx="0" cy="0" r="32" fill="white" opacity="0.9"/>
      <circle cx="20" cy="0" r="6.4" fill="#e63946"/>
      <circle cx="14.14" cy="16.33" r="6.4" fill="#e63946"/>
      <circle cx="-6.14" cy="10.11" r="6.4" fill="#e63946"/>
      <circle cx="-6.14" cy="-10.11" r="6.4" fill="#e63946"/>
      <circle cx="14.14" cy="-16.33" r="6.4" fill="#e63946"/>
    </g>
    
    <rect x="112" y="0" width="80" height="80" fill="#ff9f1c" rx="12"/>
    <g transform="translate(112, 0)">
      <rect x="24" y="16" width="12" height="40" fill="white" opacity="0.9"/>
      <circle cx="56" cy="48" r="12" fill="white" opacity="0.9"/>
      <rect x="20" y="56" width="40" height="8" fill="white" opacity="0.9"/>
    </g>
    
    <!-- Bottom row -->
    <rect x="0" y="112" width="80" height="80" fill="#8bc34a" rx="12"/>
    <g transform="translate(0, 112)">
      <rect x="16" y="20" width="48" height="12" fill="white" opacity="0.9" rx="2"/>
      <rect x="16" y="36" width="48" height="12" fill="white" opacity="0.9" rx="2"/>
      <rect x="16" y="52" width="48" height="12" fill="white" opacity="0.9" rx="2"/>
    </g>
    
    <rect x="112" y="112" width="80" height="80" fill="#20c997" rx="12"/>
    <g transform="translate(112, 112)">
      <rect x="16" y="24" width="48" height="32" fill="white" opacity="0.9" rx="2"/>
      <line x1="28" y1="36" x2="52" y2="36" stroke="#20c997" stroke-width="3.2"/>
      <line x1="28" y1="44" x2="52" y2="44" stroke="#20c997" stroke-width="3.2"/>
    </g>
  </g>
</svg>