<svg xmlns="http://www.w3.org/2000/svg" id="small-icon" width="128" height="128" viewBox="0 0 256 256"><rect x="64" y="0" width="64" height="64" fill="#e63946" rx="9.6"/><g><circle cx="96" cy="32" r="25.6" fill="white" opacity="0.9"/><circle cx="112" cy="32" r="5.12" fill="#e63946"/><circle cx="100.94427190999916" cy="47.21690426072246" r="5.12" fill="#e63946"/><circle cx="83.05572809000084" cy="41.404564036679574" r="5.12" fill="#e63946"/><circle cx="83.05572809000084" cy="22.595435963320433" r="5.12" fill="#e63946"/><circle cx="100.94427190999916" cy="16.78309573927754" r="5.12" fill="#e63946"/></g><rect x="128" y="0" width="64" height="64" fill="#ff9f1c" rx="9.6"/><g><rect x="147.2" y="12.8" width="9.6" height="32" fill="white" opacity="0.9"/><circle cx="166.4" cy="38.4" r="9.6" fill="white" opacity="0.9"/><rect x="144" y="44.8" width="32" height="6.4" fill="white" opacity="0.9"/></g><rect x="64" y="64" width="64" height="64" fill="#8bc34a" rx="9.6"/><g><rect x="76.8" y="80" width="38.4" height="9.6" fill="white" opacity="0.9" rx="1.28"/><rect x="76.8" y="91.52" width="38.4" height="9.6" fill="white" opacity="0.9" rx="1.28"/><rect x="76.8" y="103.03999999999999" width="38.4" height="9.6" fill="white" opacity="0.9" rx="1.28"/></g><rect x="128" y="64" width="64" height="64" fill="#20c997" rx="9.6"/><g><rect x="140.8" y="83.2" width="38.4" height="25.6" fill="white" opacity="0.9" rx="1.28"/><line x1="150.4" y1="92.8" x2="169.6" y2="92.8" stroke="#20c997" stroke-width="2.56"/><line x1="150.4" y1="99.2" x2="169.6" y2="99.2" stroke="#20c997" stroke-width="2.56"/></g></svg>