<svg xmlns="http://www.w3.org/2000/svg" id="full-logo" width="400" height="400" viewBox="0 0 400 400"><rect x="120" y="40" width="80" height="80" fill="#e63946" rx="12"/><g><circle cx="160" cy="80" r="32" fill="white" opacity="0.9"/><circle cx="180" cy="80" r="6.4" fill="#e63946"/><circle cx="166.18033988749895" cy="99.02113032590307" r="6.4" fill="#e63946"/><circle cx="143.81966011250105" cy="91.75570504584947" r="6.4" fill="#e63946"/><circle cx="143.81966011250105" cy="68.24429495415055" r="6.4" fill="#e63946"/><circle cx="166.18033988749895" cy="60.97886967409693" r="6.4" fill="#e63946"/></g><rect x="200" y="40" width="80" height="80" fill="#ff9f1c" rx="12"/><g><rect x="224" y="56" width="12" height="40" fill="white" opacity="0.9"/><circle cx="248" cy="88" r="12" fill="white" opacity="0.9"/><rect x="220" y="96" width="40" height="8" fill="white" opacity="0.9"/></g><rect x="120" y="120" width="80" height="80" fill="#8bc34a" rx="12"/><g><rect x="136" y="140" width="48" height="12" fill="white" opacity="0.9" rx="1.6"/><rect x="136" y="154.4" width="48" height="12" fill="white" opacity="0.9" rx="1.6"/><rect x="136" y="168.8" width="48" height="12" fill="white" opacity="0.9" rx="1.6"/></g><rect x="200" y="120" width="80" height="80" fill="#20c997" rx="12"/><g><rect x="216" y="144" width="48" height="32" fill="white" opacity="0.9" rx="1.6"/><line x1="228" y1="156" x2="252" y2="156" stroke="#20c997" stroke-width="3.2"/><line x1="228" y1="164" x2="252" y2="164" stroke="#20c997" stroke-width="3.2"/></g><g><text x="60" y="280" font-family="Arial Black, sans-serif" font-size="48" font-weight="900" fill="#2d5f5f" letter-spacing="4">PROOFSTACK</text><text x="60" y="320" font-family="Arial, sans-serif" font-size="24" font-weight="bold" fill="#5a9999" letter-spacing="8">COMMIT TO PROOF</text></g></svg>